<?xml version="1.0" standalone="no"?>
<!DOCTYPE svg PUBLIC "-//W3C//DTD SVG 20010904//EN"
 "http://www.w3.org/TR/2001/REC-SVG-20010904/DTD/svg10.dtd">
<svg version="1.0" xmlns="http://www.w3.org/2000/svg"
 width="730.000000pt" height="580.000000pt" viewBox="0 0 730.000000 580.000000"
 preserveAspectRatio="xMidYMid meet">
<metadata>
Created by potrace 1.16, written by Peter Selinger 2001-2019
</metadata>
<g transform="translate(0.000000,580.000000) scale(0.100000,-0.100000)"
fill="#000000" stroke="none">
<path d="M0 2900 l0 -2900 3650 0 3650 0 0 2900 0 2900 -3650 0 -3650 0 0
-2900z m1464 2860 c65 -10 117 -44 141 -90 13 -24 15 -136 15 -785 l0 -756 34
28 c29 24 114 100 261 232 127 114 316 281 351 311 22 19 180 159 350 311 748
667 724 647 798 683 39 19 96 40 126 46 41 9 349 12 1224 10 1292 -1 1224 2
1251 -64 35 -84 126 15 -1190 -1298 -663 -661 -1218 -1211 -1233 -1221 -53
-36 -165 -86 -220 -98 l-56 -11 70 -61 c116 -103 369 -354 1631 -1616 730
-729 1215 -1222 1219 -1237 8 -30 -18 -72 -49 -79 -12 -3 -551 -4 -1197 -3
l-1175 3 -100 27 c-121 34 -241 91 -334 161 -89 67 -185 159 -781 753 -440
437 -499 493 -533 500 -69 12 -108 -8 -234 -124 -119 -108 -333 -303 -614
-557 -85 -77 -254 -228 -374 -336 -486 -433 -472 -423 -600 -424 -98 0 -134
17 -176 83 l-29 46 0 616 0 616 29 46 c16 25 34 49 40 52 7 5 1 21 -17 48
l-27 42 -3 1984 c-1 1364 1 1996 8 2023 11 41 58 102 93 120 11 6 40 15 66 19
67 11 1165 12 1235 0z m4139 -1417 c8 -16 17 -46 21 -68 4 -22 22 -112 41
-200 19 -88 37 -180 40 -205 9 -60 42 -226 55 -271 6 -20 17 -76 25 -125 8
-49 21 -123 29 -164 8 -41 17 -91 21 -110 3 -19 8 -42 10 -50 9 -33 21 -95 50
-260 9 -52 20 -111 24 -130 5 -19 12 -48 15 -63 9 -39 20 -28 46 50 12 37 26
73 30 78 7 8 14 29 35 105 2 8 26 60 76 166 39 83 53 103 80 117 23 11 39 13
51 6 9 -5 50 -59 89 -119 40 -61 76 -110 81 -110 4 0 8 -6 8 -14 0 -16 44 -22
240 -31 316 -15 547 -32 562 -41 4 -3 8 -14 8 -24 0 -14 -9 -21 -32 -24 -70
-11 -287 -34 -688 -71 -91 -8 -166 -20 -168 -25 -6 -16 -86 0 -104 21 -17 20
-18 20 -33 -17 -9 -21 -18 -49 -22 -63 -3 -14 -9 -30 -12 -36 -4 -5 -15 -37
-26 -70 -10 -33 -22 -64 -26 -70 -7 -11 -75 -211 -134 -398 -20 -64 -46 -127
-56 -140 l-19 -22 -24 26 c-16 18 -30 59 -46 125 -12 55 -29 124 -37 154 -9
30 -19 75 -23 100 -4 25 -17 80 -29 123 -11 43 -30 126 -41 184 -11 58 -22
109 -25 112 -2 4 -7 23 -10 42 -3 19 -17 79 -31 133 -13 54 -24 109 -24 120 0
12 -12 66 -26 121 -15 55 -30 118 -33 140 l-7 40 -8 -35 c-10 -47 -80 -343
-107 -450 -11 -47 -23 -94 -25 -104 -10 -50 -37 -165 -47 -196 -5 -19 -19 -71
-30 -115 -33 -141 -43 -180 -49 -195 -4 -8 -9 -32 -13 -54 -12 -71 -44 -161
-62 -172 -11 -7 -27 -8 -41 -3 -25 10 -52 64 -132 269 -18 47 -38 91 -44 99
-5 7 -11 19 -12 27 -2 12 -102 257 -124 304 -24 51 -40 90 -50 123 -6 20 -15
37 -19 37 -9 0 -51 -86 -51 -105 0 -9 -14 -24 -31 -34 -34 -21 -68 -21 -229
-3 -142 17 -398 41 -545 52 -168 13 -217 26 -213 54 3 19 13 22 133 33 72 6
195 14 275 18 80 3 206 11 280 16 121 9 137 12 152 32 10 12 18 27 18 32 0 6
7 23 15 39 8 15 12 33 8 39 -3 6 -1 7 5 3 7 -4 12 -1 12 6 1 7 31 74 68 148
61 121 70 135 96 138 49 6 76 -35 147 -218 18 -47 36 -89 41 -95 4 -5 8 -15 8
-23 0 -8 14 -43 30 -79 17 -36 32 -73 34 -82 2 -9 5 -23 8 -31 3 -8 18 -53 33
-100 34 -102 48 -126 62 -108 9 12 35 117 83 338 10 47 26 114 34 150 9 36 23
103 31 150 8 47 21 105 29 130 8 25 17 63 21 85 10 48 9 42 29 135 9 41 26
113 37 160 11 47 22 99 24 115 10 60 27 142 45 210 10 39 24 98 31 133 11 59
39 112 59 112 5 0 16 -12 23 -27z"/>
<path d="M212 5720 c-43 -10 -70 -35 -93 -85 -18 -38 -19 -120 -19 -2013 0
-2086 -2 -2013 43 -2051 21 -17 22 -45 1 -61 -8 -8 -27 -33 -40 -57 l-26 -43
2 -602 c1 -557 2 -605 18 -633 44 -74 130 -94 236 -54 74 27 333 255 1464
1283 73 66 143 126 155 133 32 18 113 16 155 -4 23 -10 252 -230 602 -578 311
-309 585 -580 610 -602 78 -70 204 -149 289 -182 178 -68 95 -64 1376 -68
1154 -4 1215 -2 1215 28 0 11 -2542 2557 -2717 2721 -138 130 -203 178 -289
213 l-59 25 70 0 c122 0 262 43 359 109 16 10 568 557 1227 1215 1303 1300
1235 1226 1173 1275 -27 21 -28 21 -1198 21 -1259 0 -1236 1 -1339 -51 -56
-28 -98 -63 -322 -264 -104 -93 -228 -204 -275 -245 -47 -41 -150 -134 -230
-205 -80 -72 -221 -198 -315 -280 -176 -155 -221 -195 -315 -281 -30 -28 -129
-116 -220 -195 l-165 -145 0 792 c0 790 0 793 -21 821 -12 15 -36 37 -55 48
-33 19 -54 20 -649 22 -338 1 -630 -2 -648 -7z m1262 -83 c16 -12 17 -67 14
-903 l-3 -891 75 66 c41 36 134 118 205 182 72 63 267 236 435 384 168 148
398 353 511 455 508 458 713 637 762 665 l52 30 495 5 c272 3 496 5 496 5 1 0
-37 -36 -85 -79 -83 -76 -494 -460 -826 -771 -88 -83 -192 -179 -230 -215 -39
-36 -163 -151 -275 -255 -239 -222 -726 -666 -1225 -1115 -131 -118 -365 -330
-519 -470 -313 -285 -655 -589 -881 -785 -82 -72 -177 -156 -211 -187 -33 -32
-64 -58 -67 -58 -4 0 -7 884 -7 1965 l0 1966 23 9 c12 5 294 9 633 9 478 1
614 -2 628 -12z m4445 -14 c-1 -5 -45 -48 -98 -98 -53 -49 -208 -197 -346
-330 -137 -132 -360 -346 -494 -475 -135 -129 -389 -374 -566 -545 -416 -403
-690 -664 -790 -754 -92 -83 -190 -135 -280 -148 -57 -8 -248 -3 -605 16 -131
7 -142 8 -70 11 47 1 99 2 115 2 29 -1 29 -1 5 7 -14 5 -38 10 -55 11 -30 1
-30 1 -6 11 16 6 109 4 277 -6 246 -15 255 -15 344 5 99 21 147 47 250 135 64
55 635 601 665 636 24 28 -211 -189 -307 -284 -39 -38 -74 -65 -80 -61 -6 4
-8 3 -5 -3 8 -13 -80 -96 -93 -88 -5 3 -7 0 -4 -8 3 -8 -2 -17 -12 -21 -14 -5
-15 -4 -4 9 9 11 9 15 1 15 -8 0 -8 4 1 14 7 8 16 12 21 9 4 -2 7 9 7 26 0 28
13 46 35 46 6 0 10 7 10 15 0 8 9 15 20 15 23 0 55 24 55 41 0 6 9 19 19 28
12 11 17 25 13 38 -4 15 -2 19 7 14 6 -4 19 -2 27 5 10 8 11 14 4 19 -7 4 3
16 24 31 20 13 36 30 36 37 0 8 9 16 20 19 11 3 24 20 30 39 7 19 16 34 21 34
6 0 7 -5 3 -12 -4 -6 -3 -8 4 -4 7 4 6 14 -3 33 -11 21 -12 29 -2 35 7 4 8 8
2 8 -5 0 -3 4 5 10 9 6 17 5 22 -3 4 -7 5 3 2 21 -4 20 -2 32 4 32 6 0 14 9
17 20 4 11 10 18 14 16 4 -3 8 0 9 7 1 15 9 51 18 80 3 12 16 32 27 44 29 33
15 39 -18 9 -27 -25 -34 -26 -142 -26 -80 0 -125 5 -151 16 l-37 15 25 19 c22
17 43 20 178 20 94 0 152 4 152 10 0 6 -16 10 -36 10 -19 0 -33 4 -29 9 3 5
-5 11 -17 13 -13 2 26 8 85 12 93 7 112 11 137 32 33 28 44 55 35 84 -6 18
-16 20 -113 21 -59 1 -98 4 -87 6 11 3 23 10 27 16 4 7 11 7 21 -1 7 -7 17 -9
21 -5 4 4 64 10 134 14 l127 6 -160 1 c-166 2 -223 11 -251 39 -11 12 -39 19
-81 21 -135 9 -32 21 186 22 234 1 277 3 288 14 3 3 -43 6 -103 7 -76 1 -99 3
-76 9 54 13 49 20 -14 22 -65 2 87 13 261 19 55 2 -66 6 -270 9 l-370 5 -63
-49 c-34 -26 -67 -57 -73 -67 -5 -10 -15 -19 -22 -19 -7 0 -24 -15 -39 -34
-15 -19 -49 -46 -75 -60 -46 -25 -44 -23 42 61 100 98 299 285 730 688 l288
270 566 5 c311 3 576 6 589 8 12 1 21 -1 21 -5z m-1509 -1042 c0 -10 -16 -33
-35 -50 l-36 -31 -332 1 c-183 0 -340 4 -350 7 -16 7 -16 9 -1 31 9 12 30 31
48 42 29 18 54 19 369 19 324 0 337 -1 337 -19z m-320 -280 c0 -5 -12 -19 -26
-30 -22 -17 -41 -21 -110 -21 -82 0 -230 16 -248 27 -5 4 -1 12 9 20 22 15
375 19 375 4z m-332 -184 c2 -9 -10 -31 -26 -47 l-30 -30 -164 1 c-90 0 -181
4 -203 8 -39 9 -39 9 18 10 50 1 61 5 87 31 16 17 35 31 42 32 7 0 -9 4 -37 8
-29 4 25 7 130 6 163 -1 180 -3 183 -19z m-227 -238 c16 -30 -6 -67 -45 -77
-17 -4 -137 -5 -266 -2 -221 5 -236 8 -92 22 6 1 12 6 12 12 0 6 4 5 9 -3 6
-8 14 -10 22 -5 8 5 19 9 24 9 22 1 88 36 81 42 -4 4 -28 10 -54 14 -28 4 23
7 125 8 166 1 173 0 184 -20z m-357 -325 c26 -10 20 -61 -9 -80 -22 -14 -53
-15 -287 -8 -224 6 -256 9 -215 18 27 6 46 14 42 18 -4 3 8 15 27 24 l33 18
-35 7 c-19 3 69 7 197 8 127 0 238 -2 247 -5z m-369 -493 c259 -57 407 -145
690 -412 66 -62 334 -320 595 -574 261 -253 621 -600 800 -770 179 -169 372
-354 430 -409 101 -97 544 -522 680 -653 l65 -63 -584 0 -584 0 -758 757
c-417 416 -756 759 -754 761 9 9 86 -66 691 -669 341 -340 628 -619 637 -619
8 0 19 -10 22 -22 7 -21 163 -178 177 -178 5 0 8 5 8 10 0 6 12 10 26 10 22 0
24 3 15 14 -7 8 -8 16 -4 19 4 3 62 6 128 6 65 1 121 3 123 5 1 2 -72 7 -163
11 -144 6 -168 10 -193 28 -43 32 -112 100 -112 110 0 6 44 8 108 5 59 -3 116
-2 127 3 12 5 -11 8 -62 8 -73 1 -81 3 -76 19 6 23 -31 69 -60 75 -12 2 32 6
98 7 117 3 114 3 -74 11 -218 10 -228 13 -289 87 l-35 42 219 2 c201 1 209 2
99 8 -66 4 -136 8 -155 9 -19 2 -29 5 -22 8 18 7 15 23 -9 44 -20 17 -20 18
23 23 24 3 63 8 88 9 25 2 -38 4 -140 5 -156 2 -191 5 -225 21 -47 22 -110 85
-101 100 5 7 78 12 214 13 182 2 193 3 92 8 -63 3 -109 7 -102 8 6 1 12 7 12
13 0 5 -4 7 -10 4 -5 -3 -10 -1 -10 6 0 7 -7 21 -17 31 -15 17 -13 18 58 19
41 1 -25 7 -146 13 -241 12 -248 14 -299 81 -14 19 -26 36 -26 39 0 3 129 6
288 7 158 0 283 2 277 4 -5 2 -82 5 -169 8 -139 3 -161 6 -172 22 -7 10 -11
21 -9 26 3 4 0 11 -7 16 -8 4 34 10 97 14 81 4 45 6 -133 7 -182 2 -251 6
-276 16 -36 15 -116 82 -116 97 0 5 96 9 213 10 227 1 345 16 152 19 -60 1
-104 4 -98 7 9 3 10 10 3 23 -7 13 -6 20 3 23 6 3 1 7 -13 8 -14 2 52 6 145 9
l170 6 -205 2 c-113 1 -270 5 -350 9 l-144 6 -48 45 c-26 25 -48 49 -48 53 0
5 141 10 313 11 262 1 289 3 172 9 -163 8 -168 8 -135 19 21 7 19 8 -17 9 -30
1 -43 5 -43 15 0 8 -12 16 -27 18 -16 2 37 8 117 13 l145 10 -322 5 -323 5
-39 40 c-48 48 -54 68 -23 71 12 1 174 3 360 4 306 3 320 4 155 10 -100 3
-183 8 -185 10 -2 3 -9 17 -16 33 -6 15 -20 28 -29 29 -10 1 29 4 87 7 81 5
34 8 -207 15 l-313 8 -43 29 c-24 16 -48 39 -54 52 l-11 24 90 7 c50 3 211 7
357 8 146 1 206 4 134 5 -123 3 -133 5 -133 23 0 10 -8 20 -17 23 -10 2 9 7
42 11 33 4 67 9 75 10 8 2 -104 5 -250 6 -146 1 -300 5 -343 8 -73 7 -79 10
-118 49 -23 22 -38 46 -35 52 5 7 69 11 194 12 103 1 259 5 347 9 157 6 158 6
48 8 -93 2 -113 5 -113 17 0 8 -6 15 -14 15 -7 0 -13 10 -12 23 1 18 8 23 41
28 22 3 -109 7 -291 8 l-332 1 -31 35 c-17 20 -31 44 -31 54 0 18 18 19 313
26 228 5 320 4 342 -5 24 -9 27 -9 18 1 -7 7 -37 14 -68 17 -58 5 -72 17 -30
28 14 3 22 10 19 15 -3 5 -9 7 -14 4 -4 -3 -6 4 -3 15 3 11 0 20 -6 20 -6 0
-12 -8 -12 -17 -1 -10 -5 -4 -8 12 -4 17 -3 36 2 43 9 11 -9 18 -36 13 -4 -1
0 10 9 24 9 14 13 25 10 25 -4 0 -2 9 4 19 7 14 7 20 -2 23 -7 3 -9 12 -5 22
4 9 11 14 17 11 6 -4 7 -11 4 -17 -5 -7 -2 -8 5 -4 8 5 36 -12 74 -44 58 -48
57 -47 -13 20 -285 273 -504 352 -930 337 -255 -9 -449 -63 -645 -180 -87 -52
-230 -165 -221 -175 4 -3 20 7 36 23 17 16 30 24 30 19 0 -6 23 -10 53 -9 91
3 431 -15 467 -24 48 -12 31 -12 -80 -1 -176 19 -492 -19 -629 -76 -19 -8 -35
-13 -37 -12 -4 5 198 175 283 240 168 126 409 220 634 247 125 15 366 6 474
-18z m-618 -596 c84 -20 185 -66 252 -117 31 -23 135 -118 231 -212 96 -94
231 -225 300 -291 69 -66 206 -199 305 -295 99 -97 322 -313 495 -480 173
-167 439 -426 590 -575 l275 -270 -345 3 c-378 3 -491 14 -606 57 -182 68
-272 142 -659 542 -170 175 -429 443 -577 595 -296 305 -326 328 -439 336 -51
4 -68 0 -131 -30 -63 -30 -122 -80 -423 -353 -192 -175 -408 -370 -480 -434
-71 -64 -277 -250 -457 -413 -180 -164 -331 -298 -337 -298 -8 0 -12 169 -13
553 -1 303 -2 569 -2 589 0 22 9 47 20 59 53 60 665 599 829 730 224 180 432
274 680 308 44 6 94 13 110 15 59 9 321 -5 382 -19z"/>
<path d="M4275 5132 c-175 -156 -305 -282 -305 -295 0 -5 20 12 45 37 l44 46
123 1 c68 1 206 5 308 8 l185 7 -159 2 c-149 2 -184 6 -125 15 17 3 24 10 23
26 0 11 4 22 10 22 6 1 -5 5 -24 9 -23 5 8 8 89 9 68 0 122 3 120 5 -8 8 -136
15 -267 15 l-133 1 21 30 c49 68 62 72 284 80 l201 7 -160 2 c-88 1 -153 5
-145 8 8 2 22 7 30 9 11 4 12 7 2 13 -21 13 -3 38 31 46 18 4 70 10 117 14
l85 8 -65 2 c-36 2 -92 4 -125 5 l-61 2 -149 -134z"/>
</g>
</svg>
